Coordinates
version=1
nRows=32
nColumns=22
inDegrees=yes

Units are S.I. units (second, meters, Newtons, ...)
If the header above contains a line with 'inDegrees', this indicates whether rotational values are in degrees (yes) or radians (no).

endheader
time	pelvis_tilt	pelvis_list	pelvis_rotation	pelvis_tx	pelvis_ty	pelvis_tz	hip_flexion_r	hip_adduction_r	hip_rotation_r	knee_angle_r	ankle_angle_r	subtalar_angle_r	hip_flexion_l	hip_adduction_l	hip_rotation_l	knee_angle_l	ankle_angle_l	subtalar_angle_l	lumbar_extension	lumbar_bending	lumbar_rotation
      3.62000000	      1.12524987	      1.41009719	    -29.17235113	     -0.28170890	      0.88795305	     -0.06279524	    -15.04193273	     -1.36650505	     -1.40753959	    -17.77649282	     16.83895079	     -0.53919496	     22.56767573	     -0.70451837	     -9.08130831	    -24.26078189	      6.04934195	     -3.85877588	     -5.81110781	     -3.91865451	      5.28355159
      3.63000000	      1.07355052	      1.50045802	    -29.10355904	     -0.27466777	      0.88859888	     -0.06194941	    -15.08379426	     -1.59148654	     -1.23318357	    -18.20596936	     15.97197401	     -0.10298933	     22.35151181	     -0.39900258	     -8.88736795	    -24.48751636	      6.35184810	     -4.19158029	     -5.60799402	     -3.95232052	      5.23125398
      3.64000000	      1.03432393	      1.61578185	    -29.08166003	     -0.26767140	      0.88925635	     -0.06112404	    -15.02184238	     -1.86404543	     -1.01768338	    -18.79960484	     15.12855166	      0.39987545	     22.05064137	     -0.07303111	     -8.80397128	    -24.57175552	      6.65627618	     -4.59648198	     -5.41320873	     -4.01942865	      5.25271027
      3.65000000	      0.98855634	      1.72106677	    -29.07911300	     -0.26070680	      0.88991305	     -0.06030965	    -14.90080585	     -2.12397481	     -0.72881364	    -19.47790868	     14.24811490	      0.80922685	     21.69514513	      0.22902587	     -8.81519973	    -24.56403730	      6.98718412	     -4.95466370	     -5.22440672	     -4.07109762	      5.27256823
      3.66000000	      0.95326783	      1.81170254	    -29.08620307	     -0.25381040	      0.89057607	     -0.05956298	    -14.71068253	     -2.38223230	     -0.43795714	    -20.28965912	     13.35782629	      1.34365681	     21.28500525	      0.52931826	     -8.82884830	    -24.48409361	      7.31747517	     -5.41688318	     -5.07179190	     -4.10857445	      5.30882899
      3.67000000	      0.90987237	      1.88179354	    -29.16895689	     -0.24705388	      0.89123257	     -0.05872132	    -14.43138504	     -2.62228664	     -0.00564028	    -21.22918749	     12.46809862	      1.74157614	     20.84642876	      0.76043788	     -8.99469611	    -24.36658402	      7.65542463	     -5.76443274	     -4.92956973	     -4.12849348	      5.41282770
      3.68000000	      0.86990735	      1.94401656	    -29.22543047	     -0.24033499	      0.89187979	     -0.05793389	    -14.10203835	     -2.84810676	      0.39092511	    -22.25636612	     11.53461241	      2.33666972	     20.39165958	      1.00239330	     -9.09767741	    -24.21952711	      7.99551066	     -6.22429117	     -4.80356348	     -4.14086205	      5.46308839
      3.69000000	      0.82272486	      1.97443057	    -29.33174423	     -0.23377346	      0.89251867	     -0.05707324	    -13.68321419	     -3.03979887	      0.85546811	    -23.42116252	     10.61506859	      2.87022974	     19.93566688	      1.17864989	     -9.26614415	    -24.08260351	      8.31359348	     -6.57786541	     -4.69748581	     -4.12354419	      5.56254062
      3.70000000	      0.76880368	      1.97804179	    -29.45239788	     -0.22733908	      0.89314208	     -0.05617928	    -13.18427888	     -3.19608254	      1.32449405	    -24.70917363	      9.69257056	      3.43040702	     19.49093193	      1.31295970	     -9.42904359	    -23.96760283	      8.61071241	     -6.88526197	     -4.60852978	     -4.08157485	      5.66952172
      3.71000000	      0.70353893	      1.95616739	    -29.58241603	     -0.22103936	      0.89374139	     -0.05525650	    -12.59595536	     -3.31510982	      1.77812319	    -26.12489582	      8.77018842	      4.01173489	     19.06840997	      1.40591237	     -9.57490399	    -23.88240843	      8.88616343	     -7.13790621	     -4.53148922	     -4.01339175	      5.77972581
      3.72000000	      0.62772818	      1.91146407	    -29.71334847	     -0.21487249	      0.89430798	     -0.05430958	    -11.91561875	     -3.39986531	      2.18529557	    -27.67065137	      7.84863425	      4.60511428	     18.67254232	      1.46129132	     -9.70299746	    -23.83447299	      9.13739427	     -7.33341830	     -4.46701039	     -3.92327051	      5.88632633
      3.73000000	      0.55052197	      1.84943793	    -29.87265464	     -0.20886872	      0.89484622	     -0.05330907	    -11.13653752	     -3.46591607	      2.56327975	    -29.35817946	      6.96997608	      5.05457937	     18.29019822	      1.47792648	     -9.86548140	    -23.81325883	      9.34807429	     -7.44511309	     -4.41973592	     -3.82293085	      6.03342969
      3.74000000	      0.44720837	      1.78871483	    -30.00197124	     -0.20299219	      0.89529718	     -0.05235542	    -10.24121351	     -3.51319251	      2.83698132	    -31.16766690	      6.09005970	      5.63512814	     17.96384173	      1.49040812	     -9.95879643	    -23.82440808	      9.55957813	     -7.54682731	     -4.36052550	     -3.71151426	      6.13377284
      3.75000000	      0.34699249	      1.72276283	    -30.10320608	     -0.19722071	      0.89570712	     -0.05145208	     -9.27330080	     -3.55861779	      2.99415147	    -33.06790480	      5.21530477	      6.27998019	     17.64823233	      1.50931345	    -10.00094828	    -23.84697587	      9.77901075	     -7.62050135	     -4.32010367	     -3.59556674	      6.17511177
      3.76000000	      0.26146731	      1.67400958	    -30.23624956	     -0.19160469	      0.89606505	     -0.05053072	     -8.21137093	     -3.64825245	      3.06879089	    -35.07445923	      4.45874022	      6.74349857	     17.32822833	      1.53888168	    -10.09532692	    -23.85836780	      9.97331483	     -7.65518589	     -4.29593545	     -3.50883600	      6.25649709
      3.77000000	      0.22060307	      1.65654600	    -30.39047398	     -0.18609602	      0.89639941	     -0.04961885	     -7.09738864	     -3.82374042	      3.02990379	    -37.14250714	      3.86132881	      7.01576066	     16.96497378	      1.62343182	    -10.21038158	    -23.82604862	     10.15283380	     -7.67134961	     -4.30716422	     -3.47936477	      6.35609674
      3.78000000	      0.16917400	      1.63681152	    -30.50403130	     -0.18067149	      0.89666809	     -0.04880963	     -5.92847757	     -4.01718703	      2.85019463	    -39.20999123	      3.33393208	      7.34915667	     16.62893827	      1.71433463	    -10.28808641	    -23.80853969	     10.37460943	     -7.72476323	     -4.32234325	     -3.43085150	      6.37197489
      3.79000000	      0.20073947	      1.64178106	    -30.63297477	     -0.17529181	      0.89698570	     -0.04802749	     -4.78997734	     -4.33118636	      2.55193204	    -41.24034373	      3.04951195	      7.40740224	     16.18937348	      1.88515344	    -10.37323138	    -23.71339543	     10.59362757	     -7.76938966	     -4.40951890	     -3.44985572	      6.40768635
      3.80000000	      0.26732044	      1.65382510	    -30.74345179	     -0.16995889	      0.89731567	     -0.04730571	     -3.66896706	     -4.70964486	      2.15710490	    -43.18413833	      2.96739223	      7.27641999	     15.70795200	      2.09426771	    -10.44651813	    -23.58417010	     10.83229540	     -7.83256196	     -4.53117393	     -3.48807293	      6.39157060
      3.81000000	      0.36046654	      1.65756127	    -30.83194085	     -0.16466589	      0.89767669	     -0.04664011	     -2.58527653	     -5.13708993	      1.66613994	    -44.99685295	      3.11992326	      6.81570314	     15.19180052	      2.31892877	    -10.51236365	    -23.43626041	     11.05197545	     -7.95611473	     -4.68650983	     -3.52584805	      6.34390431
      3.82000000	      0.50132663	      1.62635670	    -30.89281266	     -0.15939467	      0.89814426	     -0.04601403	     -1.60225735	     -5.57959635	      1.13199503	    -46.62391851	      3.50150970	      5.80758834	     14.58654779	      2.55363445	    -10.53377002	    -23.23486819	     11.33489690	     -8.11690409	     -4.91125412	     -3.54620727	      6.22689703
      3.83000000	      0.67477805	      1.56698974	    -30.92504182	     -0.15414731	      0.89870513	     -0.04542459	     -0.70608899	     -6.04010776	      0.53607218	    -48.05298879	      4.08408451	      4.64064987	     13.92242222	      2.78710692	    -10.53995258	    -23.00422191	     11.57273393	     -8.22586160	     -5.18183635	     -3.55125921	      6.07757299
      3.84000000	      0.85977385	      1.47067404	    -30.92390881	     -0.14894892	      0.89935067	     -0.04485632	      0.10917277	     -6.47811394	     -0.08939087	    -49.26436183	      4.81374673	      3.25802066	     13.22096648	      2.99653697	    -10.51998760	    -22.75384684	     11.78989249	     -8.32668024	     -5.48478151	     -3.52163683	      5.87592957
      3.85000000	      1.03909156	      1.32821836	    -30.89198634	     -0.14380188	      0.90006765	     -0.04430329	      0.84945318	     -6.86876598	     -0.74275016	    -50.24628794	      5.64452138	      1.72681984	     12.50174408	      3.16041837	    -10.47240818	    -22.50158389	     11.99200889	     -8.41379655	     -5.80454438	     -3.43754918	      5.65188257
      3.86000000	      1.20033338	      1.15001020	    -30.83114384	     -0.13872850	      0.90082727	     -0.04375231	      1.53509425	     -7.19646366	     -1.39552300	    -51.00490910	      6.54197213	      0.16086342	     11.78507734	      3.27876554	    -10.39462526	    -22.25034860	     12.18343125	     -8.48215088	     -6.12354316	     -3.30456539	      5.40290229
      3.87000000	      1.32959902	      0.94110866	    -30.75334364	     -0.13374309	      0.90160258	     -0.04317957	      2.18628946	     -7.44145116	     -2.01556814	    -51.54650766	      7.47539146	     -1.42429996	     11.08340129	      3.34697346	    -10.28384039	    -21.99352714	     12.36843038	     -8.53426177	     -6.42327179	     -3.12137573	      5.13821465
      3.88000000	      1.42831189	      0.71354364	    -30.66780989	     -0.12887825	      0.90236188	     -0.04257124	      2.82359642	     -7.61739385	     -2.61020457	    -51.89348494	      8.39581892	     -2.95437721	     10.41961224	      3.36754066	    -10.16580250	    -21.76263535	     12.54945448	     -8.56706957	     -6.70091750	     -2.90707484	      4.87937848
      3.89000000	      1.49381844	      0.48725073	    -30.58345685	     -0.12409775	      0.90306542	     -0.04191115	      3.46409492	     -7.73849154	     -3.17073262	    -52.06185616	      9.29231101	     -4.42722837	      9.79908761	      3.35639618	    -10.07250435	    -21.54760511	     12.75501364	     -8.57773124	     -6.93509936	     -2.67814523	      4.63009115
      3.90000000	      1.53830461	      0.25614221	    -30.48941371	     -0.11940035	      0.90373331	     -0.04121558	      4.08800943	     -7.80217110	     -3.70487228	    -52.05148914	     10.16564125	     -5.77622987	      9.20562155	      3.32113034	     -9.96259879	    -21.34178282	     12.91007101	     -8.57759686	     -7.14553388	     -2.43562361	      4.38180757
      3.91000000	      1.56003116	      0.03171025	    -30.38959711	     -0.11478750	      0.90434048	     -0.04048489	      4.71365131	     -7.81818987	     -4.20970531	    -51.88589362	     10.98875890	     -6.97838030	      8.64367135	      3.27599168	     -9.81645760	    -21.13836046	     13.04921739	     -8.56040326	     -7.32583123	     -2.19165119	      4.15058634
      3.92000000	      1.56539506	     -0.17549761	    -30.30559005	     -0.11026145	      0.90485696	     -0.03967440	      5.35749407	     -7.80800384	     -4.68048619	    -51.59785846	     11.77369413	     -8.03110776	      8.12047835	      3.21784744	     -9.72661080	    -20.95904357	     13.20640760	     -8.52837197	     -7.47146019	     -1.96456140	      3.94069646
      3.93000000	      1.56372854	     -0.36133607	    -30.24675756	     -0.10583002	      0.90529120	     -0.03877565	      6.01854912	     -7.77548510	     -5.09498988	    -51.20113840	     12.51675971	     -8.94949774	      7.62482526	      3.15661638	     -9.70656913	    -20.79526098	     13.36648813	     -8.48978736	     -7.59363720	     -1.76288600	      3.74705873
